<svg width="17" height="17" viewBox="0 0 17 17" fill="none" xmlns="http://www.w3.org/2000/svg">
<path d="M12.25 1H4.75C2.67893 1 1 2.67893 1 4.75V12.25C1 14.3211 2.67893 16 4.75 16H12.25C14.3211 16 16 14.3211 16 12.25V4.75C16 2.67893 14.3211 1 12.25 1Z" stroke="white" stroke-width="1.5" stroke-linecap="round" stroke-linejoin="round"/>
<path d="M11.2412 8.09357C11.3267 8.67008 11.2282 9.25886 10.9598 9.77617C10.6914 10.2935 10.2666 10.713 9.74606 10.975C9.22548 11.237 8.63553 11.3282 8.06012 11.2356C7.48472 11.1431 6.95316 10.8714 6.54105 10.4593C6.12895 10.0472 5.85728 9.51562 5.76469 8.94021C5.6721 8.36481 5.7633 7.77486 6.02532 7.25427C6.28735 6.73369 6.70685 6.30898 7.22416 6.04056C7.74148 5.77213 8.33026 5.67366 8.90676 5.75915C9.49482 5.84635 10.0392 6.12037 10.4596 6.54074C10.88 6.9611 11.154 7.50552 11.2412 8.09357Z" stroke="white" stroke-width="1.5" stroke-linecap="round" stroke-linejoin="round"/>
<path d="M13.2002 4.33331H13.2106" stroke="white" stroke-width="2" stroke-linecap="round" stroke-linejoin="round"/>
</svg>
