<svg width="19" height="18" viewBox="0 0 19 18" fill="none" xmlns="http://www.w3.org/2000/svg">
<path d="M12.6665 6C13.9926 6 15.2644 6.52678 16.202 7.46447C17.1397 8.40215 17.6665 9.67392 17.6665 11V16.8333H14.3332V11C14.3332 10.558 14.1576 10.134 13.845 9.82149C13.5325 9.50893 13.1085 9.33333 12.6665 9.33333C12.2245 9.33333 11.8006 9.50893 11.488 9.82149C11.1754 10.134 10.9998 10.558 10.9998 11V16.8333H7.6665V11C7.6665 9.67392 8.19329 8.40215 9.13097 7.46447C10.0687 6.52678 11.3404 6 12.6665 6V6Z" stroke="white" stroke-width="1.5" stroke-linecap="round" stroke-linejoin="round"/>
<path d="M4.33333 6.83333H1V16.8333H4.33333V6.83333Z" stroke="white" stroke-width="1.5" stroke-linecap="round" stroke-linejoin="round"/>
<path d="M2.66667 4.33333C3.58714 4.33333 4.33333 3.58714 4.33333 2.66667C4.33333 1.74619 3.58714 1 2.66667 1C1.74619 1 1 1.74619 1 2.66667C1 3.58714 1.74619 4.33333 2.66667 4.33333Z" stroke="white" stroke-width="1.5" stroke-linecap="round" stroke-linejoin="round"/>
</svg>
