<svg width="24" height="24" viewBox="0 0 24 24" fill="none" xmlns="http://www.w3.org/2000/svg">
<path d="M9.13692 11.8116C9.79112 13.1491 10.8752 14.2283 12.2157 14.8764C12.3137 14.9229 12.4222 14.943 12.5304 14.9348C12.6386 14.9266 12.7429 14.8904 12.8328 14.8297L14.8065 13.5136C14.8938 13.4554 14.9942 13.4199 15.0987 13.4103C15.2032 13.4007 15.3084 13.4173 15.4048 13.4586L19.0972 15.0411C19.2226 15.0944 19.3273 15.187 19.3956 15.3049C19.4638 15.4229 19.4918 15.5598 19.4754 15.6951C19.3587 16.6084 18.9132 17.4477 18.2222 18.0561C17.5311 18.6644 16.6421 19.0001 15.7214 19.0001C12.8779 19.0001 10.1509 17.8705 8.14024 15.8599C6.12958 13.8492 5 11.1222 5 8.27866C5.00005 7.35801 5.33567 6.46895 5.94402 5.77794C6.55238 5.08693 7.39174 4.64136 8.30496 4.52466C8.44025 4.50828 8.5772 4.53632 8.69517 4.60455C8.81314 4.67277 8.90574 4.77749 8.95903 4.90292L10.5428 8.5985C10.5838 8.69409 10.6005 8.79832 10.5914 8.90192C10.5824 9.00553 10.5478 9.10528 10.4909 9.1923L9.17935 11.1962C9.11966 11.2864 9.08437 11.3905 9.07693 11.4983C9.0695 11.6062 9.09017 11.7141 9.13692 11.8116V11.8116Z" stroke="white" stroke-width="2" stroke-linecap="round" stroke-linejoin="round"/>
</svg>
