<svg width="100" height="100" viewBox="0 0 100 100" fill="none" xmlns="http://www.w3.org/2000/svg">
<path d="M31.6425 10.6379C32.3827 10.9678 33.1236 11.2962 33.8643 11.6248C34.2487 11.7952 34.633 11.9657 35.0172 12.1363C36.7532 12.9068 38.4921 13.6708 40.2316 14.4332C43.3085 15.7816 46.3824 17.1367 49.4547 18.4956C52.0109 19.6261 54.5691 20.7524 57.1289 21.8749C60.213 23.2274 63.2944 24.5858 66.3736 25.9495C68.1798 26.749 69.988 27.5439 71.7994 28.3317C72.351 28.572 72.9025 28.8124 73.4541 29.0529C73.8056 29.2058 74.1572 29.3583 74.5091 29.5103C74.9959 29.7207 75.4821 29.9324 75.9681 30.1444C76.1818 30.236 76.1818 30.236 76.3997 30.3295C77.9931 31.0279 79.398 31.9083 80.0781 33.5937C80.2928 35.3532 79.9756 36.7235 79.2358 38.3056C79.1421 38.5165 79.0483 38.7275 78.9517 38.9448C78.7369 39.4272 78.5205 39.9085 78.3017 40.3891C77.8865 41.303 77.4818 42.2215 77.0774 43.1403C76.5264 44.392 75.9742 45.6431 75.42 46.8933C74.5226 48.918 73.6326 50.9457 72.749 52.9765C72.5473 53.4402 72.3453 53.9039 72.1433 54.3675C71.5698 55.6838 70.9965 57.0002 70.425 58.3174C70.0229 59.2441 69.6197 60.1704 69.2157 61.0963C69.0614 61.4506 68.9075 61.8052 68.754 62.1599C68.5408 62.6524 68.3263 63.1442 68.1114 63.636C68.0491 63.7809 67.9868 63.9258 67.9225 64.0751C67.327 65.4304 66.6621 66.5128 65.4297 67.3827C61.9889 68.6965 57.8357 65.8977 54.7363 64.5385C54.0365 64.2324 53.3366 63.9266 52.6366 63.621C52.2038 63.4321 51.7712 63.2427 51.3387 63.053C50.1199 62.5199 48.8949 62.0086 47.6562 61.5234C47.3217 62.3246 46.9883 63.1263 46.6552 63.9282C46.6038 64.052 46.5523 64.1758 46.4993 64.3033C45.8496 65.8672 45.2111 67.4349 44.5892 69.0101C44.4993 69.2373 44.4993 69.2373 44.4076 69.4691C44.1149 70.2089 43.8236 70.9492 43.5347 71.6905C42.4254 74.5141 41.3188 77.0866 38.4765 78.5156C36.9387 79.1338 35.539 79.3256 33.8922 79.319C33.6148 79.319 33.6148 79.319 33.3318 79.3191C32.722 79.3189 32.1123 79.3174 31.5025 79.3159C31.0791 79.3155 30.6558 79.3152 30.2324 79.315C29.1192 79.3143 28.006 79.3124 26.8928 79.3102C25.5565 79.3079 24.2203 79.307 22.884 79.3058C20.855 79.3039 18.8259 79.3002 16.7968 79.2968C16.7968 83.4218 16.7968 87.5468 16.7968 91.7968C13.9609 91.7968 11.125 91.7968 8.2031 91.7968C8.2031 80.7109 8.2031 69.6249 8.2031 58.2031C11.039 58.2031 13.875 58.2031 16.7968 58.2031C16.7968 62.3281 16.7968 66.4531 16.7968 70.7031C25.5947 70.6064 25.5947 70.6064 34.5703 70.5077C35.3759 68.5178 36.1816 66.5278 37.0117 64.4775C37.2666 63.8488 37.5215 63.2202 37.7842 62.5725C37.9845 62.0768 38.1848 61.5812 38.385 61.0854C38.4638 60.8916 38.4638 60.8916 38.5441 60.6939C38.6983 60.3143 38.8517 59.9343 39.0049 59.5543C39.0916 59.3401 39.1784 59.1258 39.2677 58.9051C39.4755 58.4272 39.4755 58.4272 39.4531 58.0077C34.4271 55.8178 29.3984 53.6348 24.3534 51.489C23.6947 51.2088 23.0361 50.9283 22.3776 50.6477C20.4907 49.8441 18.6031 49.0424 16.7113 48.2504C15.9458 47.9296 15.1811 47.6069 14.4165 47.284C14.0635 47.1355 13.7101 46.9879 13.3563 46.8413C12.8728 46.6409 12.3906 46.4374 11.9087 46.2333C11.7698 46.1767 11.631 46.1202 11.4879 46.0619C10.3541 45.5755 9.34342 44.91 8.67993 43.8491C8.62329 43.6955 8.56664 43.542 8.50827 43.3837C8.4481 43.2312 8.38793 43.0786 8.32593 42.9214C7.9944 41.4676 8.27716 40.414 8.85007 39.0838C8.91976 38.916 8.98946 38.7483 9.06126 38.5755C9.29304 38.0203 9.52905 37.4671 9.7656 36.914C9.92995 36.5256 10.0942 36.1371 10.2585 35.7486C10.8057 34.4586 11.3597 33.1716 11.914 31.8847C12.1187 31.4085 12.3234 30.9323 12.528 30.456C12.8461 29.7156 13.1643 28.9751 13.4827 28.2347C14.1797 26.6138 14.875 24.9922 15.569 23.3699C15.7261 23.0026 15.8833 22.6353 16.0404 22.268C16.6418 20.8628 16.6418 20.8628 17.2427 19.4574C17.7826 18.1946 18.3241 16.9324 18.8681 15.6713C19.0564 15.2345 19.2441 14.7974 19.4314 14.3601C19.7203 13.6862 20.0112 13.0133 20.3026 12.3405C20.3901 12.1354 20.4776 11.9303 20.5677 11.719C21.2606 10.1281 21.8742 9.18002 23.4375 8.39837C26.0303 7.3947 29.3155 9.60095 31.6425 10.6379Z" fill="#FF6500"/>
<path d="M83.5938 44.1406C84.4639 44.4627 85.3324 44.7891 86.2001 45.1177C86.5678 45.2558 86.9359 45.3924 87.3045 45.5279C87.9201 45.7544 88.534 45.9849 89.1479 46.2158C89.3481 46.2884 89.5483 46.3611 89.7545 46.4359C90.034 46.5422 90.034 46.5422 90.3191 46.6507C90.4863 46.7128 90.6536 46.7749 90.826 46.8389C91.2109 47.0703 91.2109 47.0703 91.3506 47.4209C91.419 47.9505 91.3175 48.2301 91.1183 48.7241C91.0496 48.8977 90.9808 49.0713 90.91 49.2502C90.8326 49.4392 90.7552 49.6281 90.6754 49.8228C90.5954 50.0229 90.5154 50.2231 90.433 50.4293C90.1677 51.0917 89.8993 51.7528 89.6309 52.4139C89.4465 52.8725 89.2623 53.3312 89.0783 53.79C88.6427 54.8745 88.2052 55.9583 87.7668 57.0416C87.2677 58.2752 86.7711 59.5097 86.2747 60.7443C85.2536 63.2838 84.2294 65.822 83.2031 68.3594C82.9253 68.2677 82.6476 68.1758 82.3699 68.0838C82.2153 68.0327 82.0606 67.9815 81.9012 67.9288C81.2598 67.7102 80.6346 67.463 80.0056 67.2104C79.879 67.1597 79.7524 67.1089 79.6219 67.0567C79.3581 66.9509 79.0944 66.8449 78.8308 66.7386C78.4265 66.5757 78.0219 66.4135 77.6173 66.2514C75.6502 65.4618 75.6502 65.4618 75.1953 65.2344C75.5734 63.8976 76.0224 62.6106 76.5439 61.3235C76.655 61.0464 76.655 61.0464 76.7683 60.7636C77.0107 60.1598 77.2542 59.5564 77.4979 58.9531C77.6674 58.5316 77.8369 58.1101 78.0063 57.6886C78.36 56.809 78.7144 55.9296 79.0691 55.0503C79.5248 53.921 79.9792 52.7912 80.4333 51.6613C80.7824 50.7927 81.132 49.9244 81.4818 49.0561C81.6497 48.6393 81.8174 48.2224 81.985 47.8055C82.2183 47.2255 82.4522 46.6458 82.6863 46.0662C82.7559 45.8929 82.8255 45.7195 82.8972 45.5408C82.9608 45.384 83.0243 45.2271 83.0897 45.0655C83.1449 44.9285 83.2002 44.7915 83.2571 44.6504C83.3984 44.3359 83.3984 44.3359 83.5938 44.1406Z" fill="#FF6500"/>
</svg>
