<svg width="100" height="100" viewBox="0 0 100 100" fill="none" xmlns="http://www.w3.org/2000/svg">
<g clip-path="url(#clip0_43_1533)">
<path d="M58.1542 8.44747C61.0825 11.0033 63.0989 14.1401 64.453 17.7736C64.5341 17.9831 64.6152 18.1926 64.6987 18.4084C65.3633 20.2475 65.7633 22.1261 66.1315 24.0444C66.4523 25.613 66.9931 26.9237 67.7733 28.3205C67.8614 28.1426 67.9494 27.9647 68.04 27.7815C68.9208 26.0012 68.9208 26.0012 69.1405 25.7815C69.2101 25.4688 69.2697 25.1539 69.3252 24.8385C70.2471 19.7931 71.6468 14.6273 75.1952 10.7424C75.3 10.6105 75.4047 10.4785 75.5126 10.3426C78.1946 7.01594 82.3798 5.42399 86.5149 4.94405C89.91 4.64802 93.2123 4.98007 96.5209 5.74972C96.7803 5.80984 96.7803 5.80984 97.0449 5.87117C99.3411 6.43387 99.3411 6.43387 99.9999 7.42208C100.842 12.2061 97.877 18.7767 95.2056 22.6099C92.1343 26.8122 88.1117 28.87 83.0962 29.7777C79.7158 30.2479 76.1417 29.7473 72.8332 29.0209C72.2663 28.8872 72.2663 28.8872 71.6796 28.9065C70.5613 31.9725 69.9307 34.9516 69.7043 38.2105C69.6873 38.4437 69.6703 38.677 69.6527 38.9172C69.6113 39.4865 69.5708 40.0558 69.5312 40.6252C69.7185 40.6239 69.7185 40.6239 69.9097 40.6225C72.9499 40.6009 75.99 40.5847 79.0302 40.5746C80.5004 40.5696 81.9705 40.5627 83.4407 40.5515C84.7222 40.5418 86.0036 40.5355 87.2851 40.5333C87.9637 40.5321 88.6421 40.5291 89.3206 40.522C90.0781 40.5141 90.8356 40.5139 91.5932 40.5143C91.818 40.5108 92.0428 40.5073 92.2744 40.5037C93.7806 40.5135 93.7806 40.5135 94.5756 41.0531C94.9641 41.6689 95.0348 41.9585 95.0002 42.6788C94.9913 42.8849 94.9824 43.0911 94.9732 43.3035C94.8891 44.3534 94.7797 45.3959 94.6433 46.4403C94.6143 46.6683 94.5854 46.8963 94.5556 47.1312C94.4944 47.609 94.4325 48.0866 94.3698 48.5641C94.2746 49.294 94.1832 50.0243 94.0921 50.7548C94.0319 51.2209 93.9715 51.6871 93.9109 52.1532C93.8706 52.4792 93.8706 52.4792 93.8294 52.8117C93.5621 54.8022 93.5621 54.8022 92.9687 55.6643C92.4083 56.0115 91.9851 56.1038 91.3309 56.104C91.1597 56.1051 90.9886 56.1061 90.8122 56.1071C90.5314 56.1058 90.5314 56.1058 90.245 56.1045C90.0455 56.1051 89.846 56.1057 89.6404 56.1063C88.9699 56.1079 88.2994 56.1067 87.6288 56.1054C87.1489 56.106 86.669 56.1067 86.1891 56.1075C85.0197 56.1091 83.8504 56.1089 82.681 56.1077C81.7307 56.1069 80.7804 56.1067 79.8301 56.1072C79.6274 56.1073 79.6274 56.1073 79.4205 56.1073C79.1459 56.1075 78.8713 56.1076 78.5966 56.1077C76.0208 56.1088 73.445 56.1076 70.8692 56.1055C68.6585 56.1037 66.4477 56.104 64.2369 56.1058C61.6704 56.1079 59.1039 56.1087 56.5374 56.1075C56.2638 56.1074 55.9902 56.1073 55.7166 56.1072C55.5819 56.1071 55.4473 56.107 55.3086 56.107C54.3593 56.1066 53.4101 56.1072 52.4608 56.1081C51.1834 56.1093 49.9061 56.1085 48.6287 56.1062C48.1592 56.1057 47.6896 56.1059 47.22 56.1067C46.5805 56.1078 45.9411 56.1064 45.3017 56.1045C45.1145 56.1054 44.9273 56.1062 44.7345 56.1071C44.5633 56.1061 44.3921 56.1051 44.2158 56.104C44.0682 56.104 43.9206 56.1039 43.7685 56.1039C43.289 56.0465 42.9856 55.9223 42.578 55.6643C42.1174 54.9733 42.07 54.5111 41.9562 53.6905C41.9269 53.4831 41.9269 53.4831 41.8969 53.2714C41.8335 52.8201 41.7724 52.3684 41.7113 51.9167C41.6684 51.6058 41.6254 51.2949 41.5823 50.9841C41.4758 50.2125 41.3715 49.4406 41.268 48.6686C41.2154 48.2765 41.1621 47.8846 41.1088 47.4926C41.023 46.8598 40.9393 46.2267 40.8568 45.5935C40.8327 45.413 40.8085 45.2326 40.7836 45.0467C40.7211 44.5497 40.669 44.0538 40.6249 43.5549C40.609 43.3815 40.593 43.208 40.5766 43.0293C40.5676 42.8586 40.5586 42.6879 40.5494 42.512C40.5401 42.3604 40.5309 42.2089 40.5214 42.0527C40.6427 41.5241 40.8515 41.2077 41.2435 40.8342C42.0494 40.3637 43.049 40.5002 43.9535 40.5143C44.3109 40.5141 44.3109 40.5141 44.6755 40.5139C45.3272 40.5145 45.9787 40.5194 46.6304 40.5262C47.312 40.5323 47.9937 40.5329 48.6753 40.534C49.9654 40.5371 51.2554 40.5451 52.5454 40.5549C54.0144 40.5658 55.4833 40.5712 56.9523 40.5761C59.9734 40.5863 62.9945 40.6034 66.0155 40.6252C65.987 39.9994 65.9574 39.3736 65.9276 38.7478C65.9156 38.4836 65.9156 38.4836 65.9033 38.214C65.8431 36.9644 65.7227 35.75 65.4784 34.5217C65.4285 34.2568 65.4285 34.2568 65.3775 33.9866C65.1008 32.5853 64.7116 31.2368 64.2486 29.8868C64.0624 29.2971 64.0624 29.2971 64.0624 28.7111C63.8539 28.763 63.6455 28.8149 63.4307 28.8683C57.2739 30.3482 50.8463 30.5248 45.217 27.2684C39.9201 23.8662 37.2723 17.8173 35.9435 11.8693C35.2513 8.58274 35.2513 8.58274 35.5468 7.42208C36.2816 6.45521 37.04 6.20077 38.1713 5.93282C38.3329 5.89287 38.4946 5.85292 38.6612 5.81175C45.1478 4.2789 52.6501 4.12443 58.1542 8.44747ZM45.8983 46.8752C45.7356 47.4611 45.7356 47.4611 45.8983 48.0471C46.3097 48.6465 46.6314 48.9781 47.3604 49.1145C47.9502 49.1483 48.5304 49.1471 49.121 49.1335C49.4235 49.1367 49.4235 49.1367 49.7321 49.14C50.6174 49.1314 51.207 49.1135 51.9881 48.675C52.3606 48.2218 52.477 48.0393 52.4657 47.4611C52.4682 47.3322 52.4708 47.2033 52.4734 47.0705C52.2548 46.4123 51.9724 46.2385 51.3671 45.8986C50.6165 45.7794 49.8796 45.7807 49.121 45.7888C48.9193 45.7841 48.7177 45.7795 48.5099 45.7747C47.3143 45.777 46.6228 45.8196 45.8983 46.8752ZM56.0546 46.8752C55.8918 47.4611 55.8918 47.4611 56.0546 48.0471C56.5542 48.6702 56.847 48.9865 57.6401 49.1463C57.982 49.1466 57.982 49.1466 58.3309 49.1469C58.4574 49.1483 58.5839 49.1497 58.7143 49.1511C59.1302 49.1544 59.5457 49.1507 59.9616 49.1465C60.2517 49.1466 60.5419 49.1471 60.832 49.1479C61.439 49.1485 62.0458 49.1456 62.6528 49.1402C63.4303 49.1336 64.2075 49.1348 64.9849 49.1384C65.5836 49.1405 66.1823 49.1387 66.781 49.1358C67.0676 49.1348 67.3542 49.1349 67.6409 49.1361C68.0416 49.1372 68.442 49.1332 68.8427 49.1278C69.0704 49.1266 69.2982 49.1254 69.5329 49.1242C70.2401 49.0025 70.4674 48.806 70.8983 48.2424C71.0787 47.6242 71.1519 47.2453 70.9472 46.6311C70.6931 46.2326 70.6931 46.2326 70.1171 45.8986C69.5355 45.835 69.5355 45.835 68.8648 45.8388C68.7387 45.8372 68.6125 45.8355 68.4825 45.8339C68.0656 45.8292 67.6487 45.8275 67.2317 45.8262C66.9414 45.8244 66.6512 45.8226 66.361 45.8208C65.7525 45.8176 65.1441 45.8161 64.5356 45.8155C63.7569 45.8145 62.9783 45.8071 62.1996 45.7982C61.6001 45.7924 61.0006 45.791 60.401 45.7908C60.114 45.79 59.827 45.7875 59.54 45.7835C59.1378 45.7782 58.7361 45.7791 58.334 45.7816C58.1054 45.7806 57.8769 45.7796 57.6414 45.7786C56.8459 45.9351 56.5548 46.2506 56.0546 46.8752Z" fill="#FF6500"/>
<path d="M45.3125 59.1797C60.1367 59.1797 74.9609 59.1797 90.2344 59.1797C90.2344 60.3508 90.2045 61.4257 90.053 62.5734C90.0237 62.8055 90.0237 62.8055 89.9938 63.0423C89.9287 63.5556 89.8621 64.0687 89.7955 64.5819C89.7482 64.9519 89.7011 65.322 89.654 65.692C89.5263 66.6933 89.3972 67.6943 89.2677 68.6954C89.1868 69.321 89.1063 69.9466 89.0258 70.5723C88.7452 72.7556 88.4633 74.9387 88.1804 77.1216C87.9167 79.1562 87.6556 81.1911 87.3956 83.2262C87.1721 84.9747 86.9469 86.723 86.7203 88.4711C86.5851 89.5147 86.4506 90.5584 86.3178 91.6023C86.193 92.583 86.066 93.5634 85.9374 94.5437C85.8905 94.9035 85.8445 95.2634 85.7992 95.6234C85.7374 96.1146 85.6727 96.6054 85.6074 97.0961C85.5901 97.2388 85.5728 97.3814 85.555 97.5283C85.4118 98.57 85.1174 99.2576 84.375 100C83.8106 100.05 83.8106 100.05 83.0728 100.052C82.9374 100.053 82.802 100.054 82.6626 100.055C82.2067 100.057 81.751 100.057 81.2951 100.057C80.9692 100.058 80.6433 100.059 80.3174 100.061C79.4304 100.064 78.5434 100.065 77.6565 100.065C76.9167 100.066 76.177 100.067 75.4373 100.069C73.6924 100.072 71.9475 100.073 70.2025 100.072C68.401 100.072 66.5995 100.076 64.798 100.082C63.2527 100.088 61.7075 100.09 60.1622 100.089C59.2387 100.089 58.3152 100.09 57.3916 100.095C56.523 100.098 55.6545 100.098 54.786 100.096C54.4669 100.095 54.1479 100.096 53.8289 100.098C53.3937 100.101 52.9589 100.1 52.5237 100.097C52.1583 100.097 52.1583 100.097 51.7855 100.097C51.1719 100 51.1719 100 50.7127 99.6849C50.3002 99.0878 50.2294 98.633 50.1356 97.9137C50.1178 97.7839 50.0999 97.6541 50.0815 97.5204C50.023 97.0892 49.9693 96.6577 49.9156 96.2259C49.8748 95.9185 49.8338 95.6111 49.7925 95.3038C49.6843 94.4925 49.58 93.6807 49.4765 92.8687C49.3771 92.095 49.2738 91.3217 49.1706 90.5484C48.9384 88.8015 48.712 87.0539 48.4868 85.3061C48.3976 84.6142 48.3082 83.9222 48.2187 83.2303C48.0081 81.6004 47.7979 79.9704 47.588 78.3404C47.3724 76.6655 47.1557 74.9907 46.9386 73.316C46.7505 71.8649 46.5631 70.4137 46.3762 68.9624C46.2653 68.101 46.1541 67.2396 46.0423 66.3784C45.9378 65.5736 45.8341 64.7688 45.7311 63.9639C45.6932 63.6696 45.6551 63.3754 45.6167 63.0812C45.5642 62.6788 45.5128 62.2764 45.4616 61.8739C45.4327 61.6493 45.4037 61.4246 45.3738 61.1932C45.3104 60.5247 45.3125 59.8512 45.3125 59.1797Z" fill="#FF6500"/>
<path d="M10.5467 46.2891C10.5652 46.4518 10.5838 46.6145 10.6029 46.7822C11.1761 55.8641 11.1761 55.8641 15.1853 63.5864C16.1042 64.1735 16.8939 64.1736 17.9685 64.0625C19.3832 63.464 19.9856 62.0816 20.5686 60.7368C21.9205 57.184 22.4643 53.4456 22.9569 49.6957C23.1087 48.559 23.2732 47.4241 23.4373 46.2891C26.3435 46.5927 29.2713 48.1211 31.1384 50.3784C34.567 54.9193 34.4085 60.9808 33.6875 66.3713C32.6129 73.6359 30.5285 80.8789 27.3435 87.5C27.2773 87.6404 27.2112 87.7807 27.143 87.9253C25.2598 91.9141 22.7476 96.3933 18.5545 98.2422C16.9486 98.7287 15.5334 98.3846 14.0623 97.6562C5.92606 92.3323 2.78075 79.2192 0.89409 70.3149C0.232137 67.1262 -0.0906652 64.0057 -0.110082 60.7544C-0.111828 60.6109 -0.113575 60.4674 -0.115375 60.3196C-0.148406 56.2991 0.7923 52.539 3.56423 49.5216C5.34494 47.7966 8.0114 46.2891 10.5467 46.2891Z" fill="#FF6500"/>
<path d="M20.5078 0.78125C20.714 0.898701 20.714 0.898701 20.9244 1.01852C22.3843 1.97608 23.3442 3.49506 23.7473 5.18155C23.9139 6.17656 23.8856 7.18257 23.8848 8.18882C23.8862 8.43865 23.8875 8.68847 23.8888 8.94587C23.8923 9.6275 23.8932 10.3091 23.8934 10.9907C23.8937 11.4178 23.8946 11.8448 23.8956 12.2719C23.8992 13.7651 23.9008 15.2583 23.9005 16.7516C23.9003 18.138 23.9044 19.5243 23.9105 20.9106C23.9157 22.1055 23.9177 23.3003 23.9175 24.4951C23.9174 25.2067 23.9185 25.9182 23.9226 26.6298C23.9272 27.4248 23.9253 28.2197 23.923 29.0148C23.9252 29.2468 23.9274 29.4788 23.9296 29.7179C23.9124 32.0312 23.3832 33.8532 21.7521 35.5217C20.0799 37.0231 18.4186 37.4209 16.2079 37.3657C14.5397 37.2349 13.1117 36.517 11.914 35.3516C10.8209 34.0277 10.1098 32.82 10.104 31.0668C10.1023 30.8393 10.1007 30.6118 10.0989 30.3774C10.0991 30.1305 10.0993 29.8836 10.0995 29.6293C10.0983 29.3645 10.097 29.0997 10.0955 28.8349C10.0921 28.1178 10.0911 27.4007 10.0909 26.6836C10.0906 26.2349 10.0898 25.7862 10.0887 25.3375C10.0851 23.7702 10.0835 22.2029 10.0838 20.6357C10.0841 19.1778 10.08 17.7201 10.0738 16.2622C10.0687 15.0081 10.0666 13.7539 10.0668 12.4997C10.0669 11.7517 10.0658 11.0039 10.0617 10.2559C10.0579 9.55198 10.0579 8.84811 10.0607 8.14414C10.0613 7.76499 10.0581 7.38583 10.0547 7.00669C10.0698 4.89032 10.6766 3.32264 12.1094 1.75781C14.3645 -0.310214 17.8183 -0.79008 20.5078 0.78125ZM15.7348 5.57861C15.3117 6.23871 15.3197 6.65231 15.4297 7.42188C15.8298 8.00675 16.1151 8.17051 16.7846 8.39844C17.3986 8.44535 17.3986 8.44535 17.9321 8.10547C18.4908 7.46694 18.5843 7.09564 18.5547 6.25C18.1927 5.64385 18.1927 5.64385 17.5781 5.27344C16.7987 5.15038 16.4029 5.15035 15.7348 5.57861Z" fill="#FF6500"/>
<path d="M13.4765 40.0391C13.6479 40.0667 13.8193 40.0943 13.9959 40.1228C14.2223 40.1586 14.4487 40.1944 14.6819 40.2313C15.0176 40.2849 15.0176 40.2849 15.36 40.3395C16.746 40.5302 17.9822 40.4837 19.3344 40.1245C19.7265 40.0391 19.7265 40.0391 20.5078 40.0391C20.6799 46.422 20.8485 55.4458 17.1874 60.9375C16.6015 60.7422 16.6015 60.7422 16.3513 60.3287C15.7877 59.0534 15.3546 57.803 15.039 56.4453C14.9909 56.2383 14.9428 56.0313 14.8932 55.8181C13.7221 50.5545 13.3158 45.4227 13.4765 40.0391Z" fill="#FF6500"/>
</g>
<defs>
<clipPath id="clip0_43_1533">
<rect width="100" height="100" fill="white"/>
</clipPath>
</defs>
</svg>
