<svg width="100" height="100" viewBox="0 0 100 100" fill="none" xmlns="http://www.w3.org/2000/svg">
<g clip-path="url(#clip0_43_1514)">
<path d="M18.3958 57.8912C20.245 59.3236 20.9143 61.7863 21.6406 63.9192C21.7261 64.1662 21.8117 64.4132 21.8974 64.6601C22.0786 65.1826 22.2588 65.7055 22.4382 66.2286C22.7207 67.0523 23.0054 67.8752 23.2906 68.6979C23.3872 68.9767 23.4838 69.2555 23.5805 69.5343C23.6283 69.6725 23.6762 69.8107 23.7256 69.953C23.8708 70.3724 24.0158 70.7919 24.1608 71.2114C25.0349 73.7399 25.9238 76.2631 26.8187 78.7843C26.9547 79.168 27.0907 79.5517 27.2267 79.9355C27.7853 81.5105 28.3461 83.0846 28.9152 84.6559C29.0428 85.0081 29.0428 85.0081 29.1729 85.3674C29.322 85.778 29.4718 86.1885 29.6224 86.5986C29.6843 86.7687 29.7463 86.9388 29.8102 87.1141C29.8627 87.2569 29.9152 87.3997 29.9693 87.5469C30.078 87.8907 30.078 87.8907 30.078 88.2814C43.2264 88.2814 56.3748 88.2814 69.9217 88.2814C70.2118 87.3146 70.2118 87.3146 70.5077 86.3282C70.6405 85.9263 70.7762 85.5253 70.9159 85.1257C70.9913 84.9095 71.0667 84.6932 71.1444 84.4703C71.2248 84.241 71.3052 84.0117 71.3881 83.7754C71.4746 83.5279 71.561 83.2803 71.6475 83.0328C71.8783 82.3717 72.1098 81.7109 72.3414 81.0501C72.4859 80.6378 72.6302 80.2255 72.7744 79.8132C74.0552 76.1518 75.3413 72.4922 76.6356 68.8355C76.7008 68.6513 76.766 68.467 76.8331 68.2772C77.1401 67.4099 77.4481 66.543 77.7584 65.6769C78.0182 64.9515 78.2719 64.2242 78.5233 63.4958C78.6575 63.1133 78.7917 62.7308 78.9259 62.3483C79.0144 62.0871 79.0144 62.0871 79.1046 61.8207C79.7569 59.9802 80.6953 58.3451 82.4568 57.3854C84.1232 56.6187 85.7407 56.589 87.4754 57.1656C89.1739 57.8699 89.9902 58.952 90.8202 60.547C91.7418 63.3118 90.5134 66.0801 89.5628 68.6524C89.4106 69.0758 89.2589 69.4994 89.1076 69.9231C88.7946 70.7977 88.479 71.6713 88.1611 72.5442C87.725 73.743 87.297 74.9445 86.8727 76.1476C86.8065 76.3351 86.7404 76.5227 86.6722 76.7159C86.5388 77.0941 86.4054 77.4723 86.2721 77.8506C86.0709 78.42 85.869 78.9892 85.6667 79.5582C84.9298 81.6314 84.1975 83.7061 83.4719 85.7832C83.3391 86.1633 83.2062 86.5434 83.0733 86.9235C82.5542 88.4084 82.5542 88.4084 82.0364 89.8937C79.1397 98.2162 79.1397 98.2162 77.0018 99.5118C76.1991 99.8823 75.5732 100.024 74.6929 100.027C74.424 100.028 74.424 100.028 74.1496 100.03C73.9533 100.03 73.7571 100.03 73.5549 100.03C73.2413 100.031 73.2413 100.031 72.9214 100.033C72.2185 100.035 71.5156 100.037 70.8127 100.038C70.3097 100.039 69.8067 100.041 69.3037 100.043C67.7925 100.047 66.2812 100.05 64.77 100.053C64.343 100.054 63.916 100.054 63.4891 100.055C60.8362 100.06 58.1833 100.064 55.5305 100.067C54.9162 100.067 54.302 100.068 53.6877 100.068C53.535 100.069 53.3824 100.069 53.2251 100.069C50.7529 100.071 48.2807 100.078 45.8085 100.086C43.269 100.094 40.7295 100.099 38.1901 100.1C36.7648 100.101 35.3395 100.103 33.9142 100.109C32.573 100.115 31.2319 100.116 29.8908 100.114C29.399 100.114 28.9072 100.116 28.4155 100.119C27.743 100.124 27.0708 100.122 26.3983 100.119C26.2047 100.122 26.011 100.124 25.8115 100.127C24.0597 100.107 22.72 99.5057 21.4476 98.3033C20.788 97.5005 20.4281 96.6806 20.069 95.7192C20.0108 95.5665 19.9526 95.4137 19.8927 95.2562C19.2281 93.4939 18.615 91.7133 18.0038 89.9319C17.6418 88.8768 17.2772 87.8226 16.9127 86.7684C16.838 86.5522 16.7632 86.3359 16.6862 86.1131C15.9943 84.1134 15.2904 82.1181 14.5823 80.124C14.3797 79.5531 14.1773 78.9821 13.9751 78.4111C13.2964 76.4955 12.6154 74.5808 11.9307 72.6673C11.5847 71.6995 11.2404 70.731 10.8963 69.7625C10.7298 69.2952 10.5627 68.8281 10.3949 68.3613C10.1609 67.7105 9.92939 67.0589 9.69833 66.4071C9.62871 66.2153 9.5591 66.0234 9.48737 65.8258C8.78856 63.8385 8.52328 62.0036 9.41223 60.0305C10.209 58.5823 11.202 57.6608 12.744 57.0558C14.7683 56.4739 16.6371 56.7637 18.3958 57.8912Z" fill="#FF6500"/>
<path d="M53.0197 65.4884C59.1933 69.62 68.8338 68.0985 75.7812 67.3828C75.5386 68.6039 75.2036 69.7566 74.7787 70.9259C74.6881 71.1793 74.6882 71.1793 74.5957 71.4379C74.3978 71.9909 74.1984 72.5433 73.999 73.0957C73.8604 73.4819 73.7219 73.8682 73.5836 74.2544C73.3676 74.8572 73.1515 75.46 72.935 76.0626C72.4094 77.5258 71.8888 78.9907 71.3707 80.4566C71.2267 80.8636 71.0826 81.2707 70.9386 81.6778C70.7297 82.2682 70.521 82.8586 70.3127 83.4491C70.1201 83.9949 69.9269 84.5405 69.7334 85.0861C69.6473 85.3311 69.6473 85.3311 69.5594 85.5811C69.1629 86.6965 69.1629 86.6965 68.9453 86.9141C68.4562 86.9332 67.9725 86.9395 67.4833 86.9376C67.3285 86.9377 67.1736 86.9379 67.014 86.9381C66.4909 86.9384 65.9679 86.9373 65.4449 86.9362C65.0716 86.9362 64.6982 86.9362 64.3249 86.9363C63.308 86.9364 62.2912 86.9352 61.2743 86.9339C60.2128 86.9327 59.1514 86.9325 58.09 86.9323C56.0784 86.9317 54.0669 86.9301 52.0554 86.9281C49.766 86.926 47.4766 86.9249 45.1872 86.9239C40.4764 86.9219 35.7655 86.9184 31.0547 86.9141C30.0195 84.4607 30.0195 84.4607 29.6131 83.2863C29.5353 83.0626 29.4574 82.8389 29.3772 82.6084C29.2559 82.2563 29.2559 82.2563 29.1321 81.897C29.044 81.6433 28.9559 81.3897 28.8677 81.1361C28.6823 80.6025 28.4972 80.0688 28.3125 79.5349C27.8339 78.1517 27.3533 76.7692 26.8723 75.3868C26.825 75.2509 26.7777 75.1149 26.729 74.9749C26.1413 73.2859 25.5466 71.5998 24.9344 69.9196C24.8734 69.7521 24.8123 69.5845 24.7495 69.4119C24.4774 68.6667 24.2034 67.9223 23.9269 67.1787C23.8335 66.9246 23.74 66.6704 23.6465 66.4162C23.5675 66.204 23.4885 65.9918 23.4071 65.7733C23.2422 65.2344 23.2422 65.2344 23.2422 64.4531C32.0489 62.4727 45.0578 59.6623 53.0197 65.4884Z" fill="#FF6500"/>
<path d="M48.0468 -6.73532e-05C48.5418 0.278438 48.9104 0.643883 49.3042 1.04974C49.4133 1.15691 49.5224 1.26409 49.6348 1.37451C49.9563 1.69351 50.2715 2.01772 50.5859 2.34368C50.746 2.50456 50.9062 2.66544 51.0711 2.8312C55.0532 7.01798 57.377 12.6796 57.2616 18.4615C57.0755 22.0633 55.9921 25.3581 54.3057 28.518C53.1854 30.6478 52.1942 32.8286 51.5625 35.1562C51.505 35.3669 51.505 35.3669 51.4464 35.5819C49.9906 41.1624 50.5906 46.8694 53.4385 51.889C53.6096 52.1745 53.7845 52.4577 53.965 52.7374C54.3282 53.3116 54.4922 53.6575 54.4922 54.3456C54.262 54.9786 54.1196 55.1749 53.5156 55.4687C52.8388 55.5365 52.4621 55.5388 51.8707 55.1887C51.7206 55.0595 51.5706 54.9304 51.416 54.7973C51.2481 54.6538 51.0801 54.5103 50.9071 54.3624C50.7367 54.2119 50.5662 54.0613 50.3906 53.9062C50.144 53.6985 50.144 53.6985 49.8924 53.4866C45.9155 50.0601 43.4132 45.3497 42.8222 40.1367C42.8022 39.8439 42.7856 39.5509 42.7734 39.2577C42.7656 39.1286 42.7578 38.9994 42.7498 38.8664C42.6067 34.4315 44.0924 30.2567 46.1059 26.3793C46.949 24.7416 47.5473 23.0602 48.0468 21.289C48.1136 21.0543 48.1803 20.8197 48.249 20.5779C49.6529 14.5446 48.5006 7.43717 45.7031 1.95306C45.6038 1.24351 45.6123 0.924999 45.9961 0.317315C46.6671 -0.118841 47.2774 -0.142632 48.0468 -6.73532e-05Z" fill="#FF6500"/>
<path d="M67.3119 -0.135101C70.3805 0.762665 73.0653 5.23884 74.5265 7.85307C77.2107 12.8052 77.6578 17.9583 76.3886 23.4023C75.7583 25.4672 74.7489 27.3816 73.8037 29.3159C70.8163 35.4303 69.4852 42.0273 71.7492 48.6396C72.2518 50.0242 72.8975 51.2695 73.7275 52.4864C74.4217 53.5259 74.4217 53.5259 74.3897 54.309C74.2188 54.8828 74.2188 54.8828 73.8892 55.249C73.3007 55.5353 72.9162 55.5268 72.2657 55.4687C71.7995 55.1956 71.7995 55.1956 71.3501 54.8095C71.182 54.6655 71.0138 54.5215 70.8405 54.3731C70.6663 54.219 70.492 54.0649 70.3125 53.9062C70.1383 53.7602 69.9641 53.6141 69.7846 53.4637C65.9171 50.1266 63.2684 45.4536 62.7434 40.3442C62.4271 35.7658 63.3616 31.2602 65.6269 27.2511C69.0763 21.0956 69.3675 13.6775 67.495 6.97244C67.0334 5.4201 66.4867 3.91708 65.7975 2.44974C65.537 1.69956 65.5111 1.05181 65.8204 0.317322C66.3031 -0.0749222 66.6914 -0.170267 67.3119 -0.135101Z" fill="#FF6500"/>
<path d="M28.1248 -0.000142731C28.6202 0.277604 28.9885 0.643847 29.3822 1.04966C29.4913 1.15684 29.6004 1.26401 29.7128 1.37444C30.0343 1.69344 30.3495 2.01765 30.6639 2.34361C30.824 2.50449 30.9842 2.66537 31.1491 2.83113C35.0427 6.92493 37.3969 12.4616 37.3632 18.117C37.2632 21.8683 36.0942 25.1941 34.3909 28.4964C33.1605 30.8928 32.148 33.3364 31.4452 35.9374C31.3827 36.1531 31.3203 36.3689 31.2559 36.5912C29.91 42.0185 30.9631 47.603 33.7889 52.3436C33.9456 52.5567 34.104 52.7685 34.265 52.9784C34.5702 53.5155 34.5702 53.5155 34.5702 54.2357C34.3748 54.8827 34.3748 54.8827 34.0575 55.2733C33.3771 55.5598 32.8979 55.5391 32.2264 55.2733C27.8025 52.5305 24.7215 47.7344 23.3839 42.797C22.0717 37.1601 23.4211 31.396 26.1961 26.4403C27.0778 24.8625 27.6369 23.2204 28.1248 21.4842C28.1916 21.2539 28.2583 21.0235 28.327 20.7861C29.7066 14.9534 28.7175 7.7577 26.0245 2.44966C25.6852 1.75738 25.7827 1.31914 25.9764 0.585795C26.421 -0.224858 27.3021 -0.14346 28.1248 -0.000142731Z" fill="#FF6500"/>
</g>
<defs>
<clipPath id="clip0_43_1514">
<rect width="100" height="100" fill="white"/>
</clipPath>
</defs>
</svg>
