<svg width="100" height="100" viewBox="0 0 100 100" fill="none" xmlns="http://www.w3.org/2000/svg">
<g clip-path="url(#clip0_43_1522)">
<path d="M21.6778 30.0024C22.0502 30.0016 22.4225 30.0005 22.7949 29.9993C23.8009 29.9966 24.8069 29.9976 25.8129 29.9995C26.8685 30.001 27.924 29.9996 28.9796 29.9987C30.7516 29.9976 32.5236 29.999 34.2956 30.0018C36.3411 30.005 38.3865 30.004 40.432 30.0007C42.192 29.9981 43.9519 29.9977 45.7119 29.9992C46.7614 30.0001 47.8109 30.0003 48.8605 29.9983C49.8472 29.9966 50.8339 29.9978 51.8206 30.0012C52.1817 30.002 52.5428 30.0018 52.9038 30.0005C56.0145 29.9903 58.5875 30.4027 60.945 32.6003C62.1268 33.8577 62.7861 35.5252 63.4262 37.1033C63.5069 37.2991 63.5876 37.4948 63.6707 37.6964C63.8392 38.1058 64.0069 38.5155 64.1739 38.9254C64.4305 39.5553 64.6895 40.1841 64.949 40.8127C65.1129 41.212 65.2767 41.6112 65.4403 42.0106C65.5566 42.2931 65.5566 42.2931 65.6752 42.5814C65.7457 42.7549 65.8162 42.9285 65.8888 43.1073C65.9512 43.2601 66.0136 43.413 66.0779 43.5705C66.2109 43.9454 66.2109 43.9454 66.2109 44.336C66.4302 44.2678 66.6495 44.1995 66.8754 44.1292C71.0318 42.8561 71.0318 42.8561 72.4609 43.5547C73.2814 44.1386 73.7171 44.5534 74.0234 45.5079C74.1064 46.2104 74.0957 46.9127 74.0966 47.6197C74.1014 47.8071 74.1062 47.9946 74.1111 48.1877C74.117 49.6237 73.8604 50.6815 72.8859 51.7625C72.7057 51.8931 72.7057 51.8931 72.5219 52.0264C72.3456 52.1616 72.3456 52.1616 72.1656 52.2996C71.4508 52.6519 70.7012 52.7817 69.9218 52.9297C69.9592 53.0325 69.9965 53.1353 70.0349 53.2412C70.212 53.7344 70.3842 54.2293 70.5566 54.7242C70.6153 54.8854 70.6739 55.0467 70.7344 55.2128C71.9932 58.8689 72.1888 62.5144 72.174 66.3491C72.1746 66.8387 72.1753 67.3283 72.1763 67.8179C72.1774 68.8351 72.1758 69.8522 72.1721 70.8694C72.1685 71.9106 72.1684 72.9518 72.1721 73.993C72.1767 75.2604 72.1774 76.5276 72.1748 77.795C72.1743 78.275 72.1749 78.7551 72.1768 79.2352C72.1787 79.9043 72.1757 80.5732 72.1714 81.2423C72.1729 81.4384 72.1745 81.6346 72.1762 81.8366C72.1594 83.2349 71.8964 84.3466 70.8915 85.3631C70.7609 85.4519 70.6302 85.5408 70.4956 85.6324C70.3644 85.7248 70.2332 85.8172 70.0981 85.9124C69.2808 86.3974 68.4777 86.3659 67.5575 86.3747C67.4016 86.3763 67.2458 86.3779 67.0852 86.3795C66.755 86.3822 66.4249 86.3843 66.0947 86.3858C65.7589 86.3881 65.423 86.3921 65.0872 86.3978C64.6004 86.4062 64.1137 86.4093 63.6268 86.4113C63.4046 86.4165 63.4046 86.4165 63.1778 86.4217C61.9124 86.4166 60.8601 86.0497 59.9495 85.1494C59.8606 85.0188 59.7717 84.8881 59.6801 84.7535C59.5877 84.6223 59.4953 84.4911 59.4001 84.356C58.2317 82.3871 58.9843 79.9558 58.9843 77.7344C44.4824 77.7344 29.9804 77.7344 15.039 77.7344C15.039 79.3458 15.039 80.9571 15.039 82.6172C14.3778 84.8212 14.3778 84.8212 13.6962 85.3516C13.5036 85.5087 13.5036 85.5087 13.3071 85.669C12.3402 86.2924 11.4676 86.3904 10.3355 86.3938C10.1845 86.3951 10.0335 86.3964 9.87799 86.3977C9.55936 86.3997 9.24073 86.4006 8.9221 86.4006C8.43853 86.4014 7.95531 86.4085 7.4718 86.4159C7.16091 86.4171 6.85001 86.4178 6.53911 86.4182C6.39644 86.421 6.25377 86.4238 6.10677 86.4267C4.86791 86.4159 3.87298 86.0143 2.92507 85.2128C2.83795 85.1055 2.75084 84.9983 2.66109 84.8878C2.57096 84.7815 2.48082 84.6753 2.38796 84.5658C1.69055 83.442 1.70075 82.3173 1.70413 81.0394C1.70313 80.8439 1.70213 80.6484 1.7011 80.447C1.69839 79.8009 1.69857 79.1549 1.69902 78.5088C1.69826 78.0561 1.69742 77.6035 1.69649 77.1508C1.69503 76.2003 1.69509 75.2499 1.69611 74.2994C1.69724 73.0926 1.69396 71.8858 1.68941 70.679C1.6865 69.7424 1.68636 68.8058 1.68697 67.8692C1.68687 67.425 1.68587 66.9809 1.68388 66.5367C1.66985 62.96 1.85811 59.4194 2.92964 55.9815C2.97798 55.8158 3.02632 55.6502 3.07613 55.4795C3.35852 54.5323 3.69385 53.6347 4.10152 52.7344C3.98822 52.7294 3.87493 52.7244 3.7582 52.7192C2.42869 52.6226 1.64487 52.2835 0.732378 51.2696C-0.102908 50.0763 -0.0715842 49.1117 -0.0732857 47.6807C-0.0780693 47.4705 -0.082853 47.2603 -0.0877815 47.0437C-0.0935743 45.4777 0.12868 44.8113 1.22066 43.689C2.15308 43.1169 3.11814 43.0867 4.16484 43.3091C4.44961 43.3801 4.7337 43.4539 5.01705 43.5303C5.30261 43.6032 5.58821 43.6759 5.87383 43.7485C5.99787 43.7815 6.12192 43.8144 6.24972 43.8484C6.70292 43.9608 7.1591 44.0502 7.61714 44.1407C7.68298 43.9784 7.68298 43.9784 7.75014 43.8127C8.21091 42.6775 8.67394 41.5432 9.13826 40.4094C9.31081 39.9873 9.4828 39.5648 9.65419 39.1422C9.90191 38.5316 10.1517 37.9219 10.4019 37.3124C10.477 37.1259 10.5521 36.9395 10.6295 36.7474C11.7265 34.0905 13.1189 31.8818 15.8203 30.6641C17.7396 29.9322 19.6581 29.9951 21.6778 30.0024ZM17.0842 35.1614C16.5796 35.8384 16.2679 36.5609 15.9545 37.3414C15.8773 37.5259 15.8001 37.7104 15.7206 37.9005C15.4836 38.47 15.2502 39.0409 15.0178 39.6123C14.748 40.2736 14.4753 40.9336 14.2029 41.5938C13.2988 43.786 12.3982 45.9796 11.5124 48.1792C11.3442 48.5932 11.172 49.0053 10.9982 49.417C10.9069 49.6391 10.8156 49.8612 10.7215 50.0901C10.644 50.2745 10.5664 50.4589 10.4864 50.6488C10.3221 51.2858 10.3796 51.7112 10.5468 52.3438C10.9162 52.7847 11.2056 53.0638 11.7187 53.3204C11.9955 53.3392 12.2731 53.346 12.5505 53.3466C12.7261 53.3475 12.9016 53.3483 13.0825 53.3492C13.2767 53.3492 13.4708 53.3492 13.6708 53.3491C13.9787 53.3502 13.9787 53.3502 14.2929 53.3513C14.9853 53.3535 15.6777 53.3542 16.3702 53.3549C16.8648 53.3562 17.3594 53.3575 17.854 53.3588C19.3416 53.3626 20.8292 53.3647 22.3168 53.3664C23.0171 53.3673 23.7174 53.3683 24.4177 53.3693C26.7453 53.3726 29.0729 53.3755 31.4004 53.3769C32.0046 53.3773 32.6088 53.3776 33.213 53.378C33.4383 53.3782 33.4383 53.3782 33.6681 53.3783C36.101 53.3799 38.534 53.3849 40.967 53.3912C43.4641 53.3977 45.9611 53.4012 48.4582 53.4018C49.8606 53.4022 51.2629 53.404 52.6652 53.4089C53.9843 53.4136 55.3032 53.4143 56.6223 53.4123C57.1068 53.4122 57.5914 53.4135 58.0759 53.4161C58.7367 53.4196 59.3973 53.4182 60.058 53.4156C60.3466 53.4188 60.3466 53.4188 60.641 53.4221C61.7743 53.4114 62.4165 53.2919 63.2812 52.5391C63.6743 51.7529 63.3928 50.7547 63.144 49.9431C62.9675 49.4742 62.7782 49.0131 62.5824 48.552C62.5114 48.38 62.4405 48.2079 62.3674 48.0306C62.1371 47.4736 61.9036 46.918 61.6699 46.3624C61.5097 45.9778 61.3497 45.5931 61.1898 45.2084C60.8688 44.4366 60.5466 43.6654 60.2234 42.8945C59.8096 41.9054 59.4045 40.913 59.0019 39.9193C58.8333 39.5062 58.6643 39.0932 58.4952 38.6803C58.3909 38.4249 58.2875 38.1691 58.1848 37.913C58.0434 37.561 57.8986 37.2105 57.7537 36.86C57.6748 36.6661 57.5959 36.4723 57.5147 36.2725C56.8314 35.0152 55.5801 34.0043 54.2384 33.5213C53.0155 33.2366 51.7306 33.3157 50.4807 33.3196C50.1527 33.3185 49.8246 33.3171 49.4966 33.3155C48.6088 33.312 47.721 33.3122 46.8332 33.3134C46.0907 33.314 45.3481 33.3128 44.6055 33.3116C42.8528 33.3089 41.1002 33.3092 39.3475 33.3114C37.5426 33.3136 35.7378 33.3109 33.933 33.3056C32.3804 33.3013 30.8278 33.3 29.2752 33.3012C28.3492 33.3018 27.4233 33.3014 26.4973 33.298C25.6262 33.295 24.7551 33.2958 23.8839 33.2994C23.5654 33.3001 23.2468 33.2995 22.9283 33.2975C20.6898 33.2842 18.6796 33.3974 17.0842 35.1614ZM9.76558 62.3047C9.10569 63.2115 9.30978 64.4417 9.3133 65.5112C9.31392 65.9039 9.30933 66.2963 9.30439 66.689C9.30426 66.9379 9.30413 67.1867 9.304 67.4431C9.30342 67.6703 9.30284 67.8976 9.30224 68.1316C9.38353 68.8229 9.53359 69.1807 9.96089 69.7266C10.6004 70.1371 11.1218 70.1675 11.8732 70.1709C12.1007 70.1728 12.3281 70.1746 12.5625 70.1765C12.93 70.1763 12.93 70.1763 13.3049 70.176C13.6834 70.1772 13.6834 70.1772 14.0696 70.1785C14.6033 70.18 15.137 70.1799 15.6708 70.1789C16.3534 70.1778 17.0359 70.1811 17.7184 70.1856C18.3713 70.1892 19.0241 70.1884 19.6769 70.1882C19.9215 70.19 20.1661 70.1918 20.4181 70.1936C20.6462 70.1924 20.8743 70.1912 21.1093 70.19C21.3095 70.1901 21.5097 70.1902 21.7159 70.1903C22.3555 70.1053 22.724 69.9098 23.2421 69.5313C23.5323 68.951 23.4733 68.3567 23.4771 67.7201C23.4782 67.5794 23.4794 67.4388 23.4805 67.2939C23.4823 66.996 23.4836 66.6982 23.4844 66.4004C23.4863 65.9455 23.4923 65.4909 23.4985 65.0361C23.4998 64.7467 23.5008 64.4573 23.5015 64.1678C23.5052 63.9643 23.5052 63.9643 23.5089 63.7566C23.5061 63.1601 23.4683 62.7512 23.1771 62.2249C22.5741 61.6493 21.9485 61.6926 21.1567 61.6873C20.9292 61.6855 20.7017 61.6836 20.4673 61.6817C20.2213 61.6808 19.9754 61.68 19.7219 61.6791C19.4693 61.678 19.2167 61.6769 18.9564 61.6758C18.4215 61.6737 17.8866 61.6726 17.3517 61.6719C16.6676 61.6708 15.9835 61.6661 15.2994 61.6606C14.6455 61.656 13.9916 61.6557 13.3377 61.6547C12.9699 61.6511 12.9699 61.6511 12.5947 61.6474C12.3659 61.648 12.1372 61.6486 11.9015 61.6492C11.7007 61.6485 11.5 61.6478 11.2931 61.647C10.6527 61.7305 10.2867 61.9301 9.76558 62.3047ZM50.5859 62.3047C49.9678 63.404 50.131 64.682 50.1342 65.9058C50.1311 66.1431 50.1279 66.3804 50.1247 66.6249C50.1246 66.8546 50.1244 67.0844 50.1243 67.3211C50.1237 67.5296 50.1232 67.7382 50.1226 67.9531C50.2084 68.6631 50.3995 69.1232 50.7812 69.7266C51.4141 70.1447 51.9454 70.1675 52.6935 70.1709C52.921 70.1728 53.1485 70.1746 53.3829 70.1765C53.7503 70.1763 53.7503 70.1763 54.1252 70.176C54.5037 70.1772 54.5037 70.1772 54.8899 70.1785C55.4236 70.18 55.9573 70.1799 56.4911 70.1789C57.1737 70.1778 57.8562 70.1811 58.5388 70.1856C59.1916 70.1892 59.8444 70.1884 60.4972 70.1882C60.7418 70.19 60.9864 70.1918 61.2384 70.1936C61.4665 70.1924 61.6946 70.1912 61.9296 70.19C62.1298 70.1901 62.33 70.1902 62.5362 70.1903C63.1772 70.1051 63.5436 69.9116 64.0625 69.5313C64.4713 68.8061 64.5032 68.1628 64.505 67.3401C64.5055 67.1098 64.506 66.8794 64.5065 66.6421C64.5042 66.2837 64.5042 66.2837 64.5019 65.918C64.5034 65.6791 64.5049 65.4402 64.5065 65.194C64.5057 64.8484 64.5057 64.8484 64.505 64.4959C64.5043 64.1815 64.5043 64.1815 64.5036 63.8608C64.45 63.2459 64.3657 62.8426 64.0625 62.3047C63.3374 61.7739 62.8241 61.6451 61.9327 61.643C61.5915 61.6402 61.5915 61.6402 61.2434 61.6374C60.8774 61.6392 60.8774 61.6392 60.5041 61.641C60.252 61.6404 60 61.6399 59.7402 61.6393C59.2076 61.6384 58.6751 61.6397 58.1425 61.6424C57.4615 61.6458 56.7805 61.6438 56.0995 61.6403C55.4477 61.6377 54.796 61.6395 54.1442 61.641C53.9003 61.6398 53.6563 61.6386 53.405 61.6374C53.0638 61.6402 53.0638 61.6402 52.7156 61.643C52.516 61.6435 52.3164 61.6439 52.1108 61.6444C51.4714 61.7312 51.1039 61.9255 50.5859 62.3047Z" fill="#FF6500"/>
<path d="M76.2342 13.6431C76.4063 13.6417 76.5785 13.6403 76.7559 13.6389C76.9443 13.6384 77.1328 13.6379 77.3269 13.6373C77.6252 13.6354 77.6252 13.6354 77.9295 13.6334C78.5891 13.6296 79.2487 13.6273 79.9082 13.6253C80.1337 13.6245 80.3591 13.6238 80.5914 13.6229C81.7853 13.6189 82.9792 13.6161 84.1731 13.6142C85.4041 13.6121 86.635 13.6054 87.8659 13.5976C88.8141 13.5925 89.7623 13.5909 90.7106 13.5902C91.1641 13.5892 91.6177 13.5869 92.0713 13.5833C92.7079 13.5785 93.3444 13.5787 93.9811 13.5801C94.1667 13.5776 94.3524 13.5751 94.5437 13.5725C96.0071 13.5838 97.3487 13.9024 98.5163 14.8232C98.6153 14.9468 98.7142 15.0704 98.8162 15.1978C98.9186 15.3199 99.0211 15.442 99.1267 15.5678C99.9696 16.8802 100.086 17.9354 100.079 19.4675C100.081 19.6728 100.082 19.8782 100.083 20.0897C100.087 20.766 100.086 21.4421 100.085 22.1184C100.086 22.59 100.087 23.0616 100.088 23.5332C100.09 24.5208 100.089 25.5083 100.087 26.4958C100.085 27.7596 100.089 29.0233 100.095 30.2871C100.098 31.2608 100.098 32.2345 100.097 33.2082C100.097 33.674 100.098 34.1399 100.101 34.6058C100.104 35.2579 100.102 35.9098 100.098 36.5619C100.101 36.8489 100.101 36.8489 100.104 37.1416C100.088 38.6282 99.7287 39.6442 98.7551 40.7715C97.1054 42.1855 95.5951 42.4481 93.4748 42.421C93.225 42.4201 93.225 42.4201 92.97 42.4193C92.4448 42.4171 91.9195 42.4122 91.3943 42.4072C91.0353 42.4053 90.6764 42.4035 90.3174 42.4019C89.4434 42.3976 88.5695 42.3909 87.6956 42.3828C87.6961 42.5993 87.6966 42.8159 87.6972 43.039C87.7102 48.3039 87.7198 53.5689 87.7259 58.8339C87.7289 61.38 87.7331 63.9261 87.7398 66.4722C87.7456 68.691 87.7494 70.9098 87.7507 73.1286C87.7515 74.3038 87.7533 75.479 87.7575 76.6541C87.7615 77.7598 87.7627 78.8654 87.7618 79.971C87.762 80.3772 87.7632 80.7834 87.7654 81.1896C87.7683 81.7436 87.7676 82.2974 87.766 82.8513C87.7677 83.0126 87.7694 83.1739 87.7712 83.3401C87.7641 84.2396 87.6823 84.8103 87.1096 85.5469C86.5995 85.9626 86.1804 85.9601 85.5471 85.9131C84.9784 85.8231 84.7667 85.7428 84.2898 85.3882C83.6631 84.5108 83.7621 83.5406 83.7658 82.499C83.7657 82.3276 83.7655 82.1563 83.7653 81.9797C83.765 81.4045 83.7661 80.8294 83.7671 80.2542C83.7672 79.8423 83.7672 79.4304 83.7671 79.0185C83.767 77.8991 83.7681 76.7798 83.7695 75.6605C83.7707 74.4911 83.7708 73.3218 83.7711 72.1524C83.7717 69.9375 83.7733 67.7227 83.7752 65.5078C83.7774 62.9865 83.7785 60.4652 83.7795 57.9439C83.7815 52.7569 83.785 47.5698 83.7893 42.3828C83.457 42.3859 83.457 42.3859 83.118 42.389C82.2891 42.3961 81.4603 42.4006 80.6315 42.4043C80.274 42.4062 79.9166 42.4089 79.5591 42.4123C79.0428 42.4171 78.5264 42.4193 78.01 42.421C77.8525 42.423 77.695 42.425 77.5326 42.4271C75.7649 42.4274 74.2356 42.1895 72.9312 40.9042C71.6542 39.5083 71.3972 38.2726 71.4088 36.4277C71.4078 36.2262 71.4068 36.0247 71.4057 35.8171C71.4031 35.1535 71.4048 34.49 71.4068 33.8265C71.4064 33.3636 71.4058 32.9008 71.4051 32.4379C71.4042 31.4688 71.4055 30.4996 71.4082 29.5305C71.4116 28.2903 71.4097 27.0502 71.4061 25.8101C71.404 24.8545 71.4047 23.8989 71.4062 22.9434C71.4066 22.4862 71.4061 22.029 71.4048 21.5719C71.4033 20.9319 71.4056 20.2921 71.4088 19.6522C71.4076 19.4646 71.4064 19.2769 71.4052 19.0836C71.4204 17.4608 71.7866 16.1689 72.9006 14.949C73.8233 14.1376 75.0091 13.65 76.2342 13.6431ZM79.1018 20.1172C79.0267 20.6542 78.9988 21.1125 79.0069 21.6488C79.0062 21.8023 79.0054 21.9558 79.0047 22.1139C79.0032 22.6206 79.0074 23.127 79.0118 23.6336C79.0123 23.9858 79.0124 24.3379 79.0123 24.6901C79.0129 25.4278 79.0162 26.1654 79.0214 26.9031C79.0281 27.8493 79.0295 28.7955 79.0293 29.7417C79.0294 30.4687 79.0315 31.1957 79.0343 31.9227C79.0356 32.2717 79.0363 32.6206 79.0366 32.9696C79.0375 33.4568 79.0409 33.9439 79.0451 34.4311C79.0449 34.5757 79.0447 34.7203 79.0445 34.8693C79.0536 35.5927 79.0803 35.9052 79.4924 36.5234C79.9991 36.5775 80.4519 36.5963 80.9573 36.5845C81.1593 36.5854 81.1593 36.5854 81.3655 36.5864C82.1785 36.5985 82.1785 36.5985 82.8127 36.1328C82.8855 35.5832 82.8855 35.5832 82.8936 34.9411C82.9012 34.7044 82.9087 34.4678 82.9165 34.2239C82.9226 33.9757 82.9286 33.7275 82.9348 33.4717C82.9424 33.2219 82.9499 32.9722 82.9577 32.7149C82.9762 32.0964 82.9929 31.4779 83.0081 30.8594C83.4867 30.6201 83.816 30.6334 84.3508 30.6229C84.5434 30.6173 84.736 30.6118 84.9345 30.6061C85.3368 30.5961 85.7391 30.5874 86.1415 30.5801C88.1385 30.5181 89.7613 30.2048 91.2272 28.7804C92.3058 27.4557 92.5149 25.9166 92.4594 24.2485C92.2959 22.9297 91.7977 21.6275 90.8206 20.7031C88.7628 19.1109 85.7781 19.263 83.2847 19.2636C82.8664 19.2627 82.4485 19.2555 82.0304 19.2482C81.7614 19.2471 81.4925 19.2463 81.2235 19.2459C80.9844 19.2443 80.7453 19.2427 80.499 19.2411C79.7376 19.3583 79.5588 19.504 79.1018 20.1172Z" fill="#FF6500"/>
<path d="M84.9976 22.4121C85.1826 22.4081 85.3675 22.404 85.558 22.3999C86.6098 22.394 87.3831 22.4337 88.2813 23.0469C88.7948 23.817 88.9264 24.4888 88.8192 25.4158C88.6936 26.0193 88.5853 26.4625 88.1242 26.8867C86.7462 27.7277 84.76 27.6929 83.2032 27.539C82.8126 27.1484 82.8126 27.1484 82.7651 26.6948C82.7659 26.5099 82.7667 26.325 82.7676 26.1345C82.7679 25.9339 82.7683 25.7334 82.7687 25.5268C82.7711 25.3167 82.7735 25.1066 82.776 24.8901C82.7761 24.6793 82.7762 24.4684 82.7763 24.2512C82.7876 22.2618 83.0945 22.4223 84.9976 22.4121Z" fill="#FF6500"/>
</g>
<defs>
<clipPath id="clip0_43_1522">
<rect width="100" height="100" fill="white"/>
</clipPath>
</defs>
</svg>
