<svg width="100" height="100" viewBox="0 0 100 100" fill="none" xmlns="http://www.w3.org/2000/svg">
<path d="M34.7656 54.1015C37.0998 54.3101 39.0022 55.0164 41.1125 55.9737C43.4649 57.0257 45.8478 57.7163 48.4375 57.8124C48.5735 57.8202 48.7094 57.828 48.8495 57.836C52.2994 57.9463 55.5493 56.9813 58.6426 55.5419C61.0227 54.4467 63.0111 54.0564 65.6372 54.0282C65.8499 54.0254 66.0625 54.0226 66.2816 54.0198C68.3805 54.0326 70.2519 54.5119 72.168 55.3466C72.3096 55.4062 72.4512 55.4658 72.5971 55.5272C73.2183 55.7893 73.8358 56.058 74.4514 56.3331C76.0321 57.0277 77.6196 57.4228 79.2969 57.8124C79.1869 59.8298 78.9852 61.8209 78.7122 63.8227C78.6726 64.1182 78.6331 64.4137 78.5937 64.7092C78.4877 65.5023 78.3804 66.2951 78.2728 67.0879C78.1827 67.7528 78.0931 68.4178 78.0036 69.0829C77.7922 70.652 77.5797 72.2211 77.3666 73.79C77.1475 75.4035 76.9303 77.0173 76.714 78.6312C76.5273 80.023 76.3395 81.4148 76.1506 82.8064C76.0382 83.6348 75.9263 84.4634 75.8156 85.292C75.7115 86.0706 75.6059 86.8489 75.4991 87.6271C75.4604 87.9112 75.4222 88.1954 75.3846 88.4797C75.0145 91.2723 74.5598 93.8017 72.2519 95.6481C71.0543 96.4433 69.7859 96.8975 68.3505 96.9023C68.0524 96.904 68.0524 96.904 67.7483 96.9057C67.5313 96.9059 67.3144 96.9061 67.0909 96.9064C66.8615 96.9073 66.6321 96.9083 66.3958 96.9093C65.767 96.9117 65.1382 96.9131 64.5095 96.914C64.1159 96.9146 63.7224 96.9154 63.3288 96.9162C62.0956 96.9189 60.8623 96.9208 59.629 96.9216C58.2092 96.9224 56.7894 96.9258 55.3696 96.9315C54.2699 96.9358 53.1701 96.9377 52.0704 96.938C51.4147 96.9382 50.759 96.9396 50.1033 96.9428C49.3703 96.9462 48.6375 96.9458 47.9045 96.9445C47.6899 96.9463 47.4754 96.9481 47.2543 96.95C45.0452 96.9381 43.269 96.4106 41.6016 94.9218C40.3392 93.4415 39.8078 91.7543 39.5557 89.8596C39.5315 89.6888 39.5073 89.518 39.4824 89.342C39.4014 88.7666 39.3231 88.1909 39.2448 87.6151C39.1865 87.1958 39.1281 86.7766 39.0695 86.3573C38.8872 85.0468 38.7084 83.7358 38.5301 82.4246C38.4568 81.8858 38.3832 81.3471 38.3096 80.8083C37.7766 76.9057 37.2498 73.0023 36.7253 69.0985C36.5542 67.8257 36.3827 66.5529 36.2111 65.2802C36.0232 63.8873 35.8356 62.4943 35.6482 61.1013C35.5693 60.5145 35.4902 59.9278 35.4111 59.341C35.3019 58.5315 35.1932 57.7221 35.0846 56.9126C35.052 56.6715 35.0195 56.4304 34.9859 56.182C34.9567 55.9636 34.9274 55.7452 34.8973 55.5201C34.8589 55.2347 34.8589 55.2347 34.8198 54.9435C34.7656 54.4921 34.7656 54.4921 34.7656 54.1015Z" fill="#FF6500"/>
<path d="M48.4375 25C60.1035 25 71.7695 25 83.7891 25C83.5693 27.8565 83.5693 27.8565 83.4381 28.8227C83.4085 29.043 83.379 29.2634 83.3485 29.4905C83.3166 29.7224 83.2848 29.9543 83.252 30.1933C83.2009 30.5711 83.2009 30.5711 83.1489 30.9565C83.0568 31.6389 82.9637 32.3211 82.8705 33.0033C82.7726 33.7209 82.6755 34.4385 82.5783 35.1561C82.4152 36.359 82.2517 37.5618 82.0877 38.7646C81.8775 40.3064 81.6682 41.8483 81.4592 43.3902C81.2788 44.7206 81.0981 46.051 80.9173 47.3814C80.8787 47.6659 80.84 47.9505 80.8014 48.235C80.6745 49.1695 80.5473 50.1039 80.4199 51.0383C80.3881 51.273 80.3562 51.5077 80.3234 51.7495C80.2938 51.966 80.2642 52.1825 80.2338 52.4056C80.1955 52.6864 80.1955 52.6864 80.1565 52.9728C80.0737 53.546 79.98 54.1166 79.8828 54.6875C77.922 54.6388 76.2805 53.9069 74.5132 53.1311C69.3537 50.879 64.1037 50.1852 58.7166 52.2743C57.6645 52.6986 56.6265 53.1544 55.5885 53.6118C55.3919 53.6969 55.1953 53.782 54.9927 53.8696C54.8278 53.9434 54.6629 54.0172 54.493 54.0932C49.855 55.7035 45.2313 54.5989 40.9456 52.667C38.7903 51.7118 36.7178 51.2694 34.375 50.9766C34.1816 49.5586 33.9883 48.1406 33.7891 46.6797C35.3516 46.0938 35.3516 46.0938 35.9703 45.871C40.9997 44.0232 44.797 40.809 47.0641 35.9219C48.6835 32.2703 48.7411 28.9467 48.4375 25Z" fill="#FF6500"/>
<path d="M29.8829 2.92969C30.5202 3.14212 30.5902 3.22041 30.9495 3.7468C31.0856 3.94336 31.0856 3.94336 31.2245 4.14391C31.3216 4.28704 31.4186 4.43017 31.5186 4.57764C31.7295 4.8827 31.9406 5.18761 32.1519 5.4924C32.2608 5.65023 32.3698 5.80806 32.482 5.97067C33.0053 6.72212 33.5437 7.46243 34.0821 8.20312C35.3995 10.0212 36.6931 11.8556 37.9843 13.6923C38.2744 14.1047 38.5647 14.517 38.855 14.9292C38.9508 15.0652 39.0466 15.2013 39.1453 15.3415C39.762 16.2154 40.3876 17.0824 41.018 17.9465C43.9919 22.0311 46.3017 25.7449 45.5079 31.0547C44.7244 35.2766 42.3723 38.6129 38.9619 41.1919C35.4883 43.5682 31.1759 44.2969 27.0524 43.6295C24.415 43.0922 21.9467 41.7924 19.9219 40.0391C19.7608 39.9147 19.5997 39.7903 19.4337 39.6622C16.9013 37.5651 15.1302 33.8917 14.6485 30.6641C14.2811 25.6154 16.0546 22.1999 18.9989 18.2295C19.5443 17.4917 20.081 16.7476 20.6177 16.0034C20.7229 15.858 20.828 15.7125 20.9364 15.5627C21.7447 14.4431 22.5419 13.3159 23.3361 12.1864C24.0459 11.1785 24.7651 10.1779 25.4883 9.17969C26.3455 7.99625 27.1966 6.80881 28.0396 5.61523C28.135 5.48029 28.2305 5.34534 28.3288 5.2063C28.8584 4.45473 29.3764 3.69709 29.8829 2.92969ZM37.8907 27.3437C37.5 27.9243 37.4186 28.5215 37.3172 29.2057C36.9842 31.4247 36.2151 32.9788 34.4552 34.436C33.1563 35.3454 31.7816 35.6376 30.227 35.8223C29.6186 35.9522 29.2165 36.1647 28.711 36.5234C28.4091 37.1273 28.4584 37.6161 28.5157 38.2812C28.9264 38.8283 29.1617 39.0366 29.8394 39.1663C33.022 39.1348 35.5205 37.9952 37.8274 35.8368C39.551 33.9944 40.6354 31.623 40.6861 29.1016C40.6934 28.8639 40.7007 28.6262 40.7082 28.3813C40.6108 27.6231 40.4387 27.4128 39.8438 26.9531C39.079 26.5707 38.5741 26.9129 37.8907 27.3437Z" fill="#FF6500"/>
</svg>
